<svg xmlns="http://www.w3.org/2000/svg" width="209" height="58" viewBox="0 0 209 58" fill="none">
<path d="M142.626 19.4409V22.1287C140.21 22.1287 138.006 23.2061 137.178 25.1568V33.5189H134.108V19.732H136.834V22.0002C137.896 20.3066 140.134 19.2141 142.626 19.4447" fill="white"/>
<path d="M200.741 19.6191C204.551 19.6191 208.074 22.0801 208.074 26.7716C208.074 31.463 204.551 33.9164 200.741 33.9164C196.93 33.9164 193.407 31.4592 193.407 26.7716C193.407 22.0839 196.956 19.6191 200.741 19.6191ZM200.741 22.3901C198.204 22.3901 196.45 24.114 196.45 26.7716C196.45 29.4291 198.2 31.153 200.741 31.153C203.281 31.153 205.001 29.4254 205.001 26.7716C205.001 24.1178 203.255 22.3901 200.741 22.3901Z" fill="white"/>
<path d="M92.207 33.5562V19.7239H94.9402V21.4515C95.6925 20.6198 97.2992 19.3496 99.5447 19.3496C101.613 19.3496 103.053 20.2115 103.858 21.5687C105.068 20.359 106.678 19.3496 108.693 19.3496C112.345 19.3496 113.933 22.0563 113.933 24.9105V33.5562H110.852V24.9974C110.852 23.2131 109.789 22.0904 108.119 22.0904C106.595 22.0904 105.416 23.0959 104.694 23.9616C104.724 24.2754 104.754 24.5929 104.754 24.9105V33.5562H101.673V24.9974C101.673 23.2131 100.611 22.0904 98.9398 22.0904C97.2689 22.0904 96.0025 23.2963 95.288 24.2225V33.5562H92.207Z" fill="white"/>
<path d="M123.811 19.3496C129.307 19.3496 131.205 23.7877 130.313 27.7911H119.924C120.272 30.271 122.692 31.3068 125.221 31.3068H129.598V32.9778C128.328 33.5864 126.57 33.9304 124.642 33.9304C120.416 33.9304 116.821 31.511 116.821 26.6419C116.821 21.7728 120.616 19.3534 123.811 19.3534M123.958 21.9165C121.886 21.9165 120.011 23.1564 119.902 25.4927H127.553C127.723 24.2792 126.979 21.9165 123.958 21.9165Z" fill="white"/>
<path d="M151.872 19.3496C153.422 19.3496 154.919 19.6936 156.125 20.4157V23.2396C155.119 22.5175 153.709 22.0904 152.299 22.0904C149.853 22.0904 147.377 23.3832 147.377 26.6419C147.377 29.9006 149.766 31.1972 152.239 31.1972C153.705 31.1972 155.176 30.7625 156.268 30.1312V32.9815C154.945 33.6166 153.452 33.9342 151.694 33.9342C148.012 33.9342 144.243 31.6887 144.243 26.7591C144.243 21.8295 148.182 19.3572 151.868 19.3572" fill="white"/>
<path d="M172.774 31.3637C173.091 31.3637 173.409 31.2767 173.696 31.1936V33.4126C173.122 33.6395 172.434 33.7604 171.742 33.7604C170.475 33.7604 169.47 33.269 168.982 32.1462C167.629 33.2425 165.931 33.9305 163.773 33.9305C161.27 33.9305 158.938 32.5507 158.938 29.6965C158.938 26.1544 162.215 25.0581 165.096 25.0581H168.691V24.9711C168.691 23.2435 167.425 22.0338 165.066 22.0338H160.087V20.2759C161.183 19.9017 163.164 19.3535 165.383 19.3535C169.3 19.3535 171.772 21.2248 171.772 25.4059V30.3619C171.772 31.1369 172.229 31.3675 172.774 31.3675M162.106 29.4962C162.106 30.8496 163.312 31.5414 164.695 31.5414C166.162 31.5414 167.602 30.997 168.695 29.9007V27.2204H165.705C163.947 27.2204 162.109 27.7686 162.109 29.4962" fill="white"/>
<path d="M190.356 15.2285V33.5556H187.593V31.363C186.53 32.7202 184.89 33.9261 182.3 33.9261C178.127 33.9261 175.446 30.6145 175.446 26.6376C175.446 22.6607 178.127 19.3491 182.3 19.3491C184.716 19.3491 186.326 20.4152 187.271 21.5077V15.2285H190.356ZM182.844 22.0596C180.372 22.0596 178.554 23.9347 178.554 26.6414C178.554 29.3481 180.368 31.2232 182.844 31.2232C185.003 31.2232 186.587 29.8433 187.249 28.3161V24.944C186.587 23.447 185.003 22.0634 182.844 22.0634" fill="white"/>
<path d="M152.22 41.4424L148.984 42.172V41.2042L152.22 40.4746V41.4424Z" fill="white"/>
<path d="M152.22 41.4424L155.456 42.172V41.2042L152.22 40.4746V41.4424Z" fill="white"/>
<path d="M98.2934 43.3242C102.928 43.3242 104.459 47.2709 103.888 50.333H93.1899C93.3449 53.9394 96.1424 55.4175 99.1175 55.4175H103.162V56.3475H98.9928C95.4468 56.3475 92.207 54.378 92.207 49.8378C92.207 45.6075 95.2389 43.3242 98.2934 43.3242ZM98.3425 44.2617C95.7001 44.2617 93.292 46.0763 93.1899 49.4484H103.034C103.268 47.32 102.127 44.2617 98.3425 44.2617Z" fill="white"/>
<path d="M118.231 43.3242C122.87 43.3242 124.397 47.2709 123.826 50.333H113.131C113.286 53.9394 116.084 55.4175 119.067 55.4175H123.104V56.3475H118.934C115.388 56.3475 112.145 54.378 112.145 49.8378C112.145 45.6075 115.18 43.3242 118.235 43.3242M118.288 44.2617C115.645 44.2617 113.237 46.0763 113.135 49.4484H122.975C123.21 47.32 122.068 44.2617 118.288 44.2617Z" fill="white"/>
<path d="M189.154 43.3241H192.212V44.2616H189.256C186.409 44.2616 183.453 45.925 183.453 49.9132C183.453 53.9015 186.198 55.4174 189.022 55.4174C190.42 55.4174 191.845 55.0772 192.983 54.427V55.4174C191.766 56.0601 190.367 56.3474 188.916 56.3474C185.706 56.3474 182.463 54.3514 182.463 49.9397C182.463 45.528 185.937 43.3203 189.146 43.3203" fill="white"/>
<path d="M108.564 39.7109H107.57V56.352H108.564V39.7109Z" fill="white"/>
<path d="M128.623 39.4727V43.5554H134.059V44.4967H128.623V52.4241C128.623 54.4693 129.647 55.4333 131.704 55.4333H134.055V56.3481H131.443C129.091 56.3481 127.628 55.0628 127.628 52.5564V44.4967H125.277V43.5554H127.628V39.4727H128.619H128.623Z" fill="white"/>
<path d="M143.967 43.5299V44.5242C140.97 44.4183 139.008 46.5126 138.407 48.8149V56.3491H137.412V43.7908H138.327V47.2158C139.159 45.2009 141.227 43.4506 143.967 43.5299Z" fill="white"/>
<path d="M152.118 43.2148C155.513 43.2148 158.647 45.57 158.647 49.7813C158.647 53.9926 155.513 56.3478 152.118 56.3478C148.723 56.3478 145.612 53.9926 145.612 49.7813C145.612 45.57 148.746 43.2148 152.118 43.2148ZM152.118 44.1826C149.169 44.1826 146.606 46.2202 146.606 49.7775C146.606 53.3348 149.169 55.38 152.118 55.38C155.067 55.38 157.652 53.3386 157.652 49.7775C157.652 46.2164 155.093 44.1826 152.118 44.1826Z" fill="white"/>
<path d="M167.999 43.5018C170.796 43.5018 172.963 45.4374 172.963 48.6318V56.3474H171.968V48.7338C171.968 45.9326 170.192 44.4431 167.916 44.4431C165.459 44.4431 163.791 46.1178 162.956 47.5808V56.3437H161.958V43.7854H162.877V46.3749C163.712 45.1198 165.485 43.498 167.995 43.498" fill="white"/>
<path d="M178.081 40.8602C177.692 40.8602 177.348 40.6259 177.348 40.1306C177.348 39.6354 177.692 39.4199 178.081 39.4199C178.471 39.4199 178.811 39.6581 178.811 40.1306C178.811 40.6032 178.471 40.8602 178.081 40.8602ZM177.59 43.79H178.58V56.3483H177.59V43.79Z" fill="white"/>
<path d="M201.542 43.2148C204.933 43.2148 208.075 45.57 208.075 49.7813C208.075 53.9926 204.937 56.3478 201.542 56.3478C198.147 56.3478 195.036 53.9926 195.036 49.7813C195.036 45.57 198.17 43.2148 201.542 43.2148ZM201.542 44.1826C198.59 44.1826 196.03 46.2202 196.03 49.7775C196.03 53.3348 198.59 55.38 201.542 55.38C204.495 55.38 207.08 53.3386 207.08 49.7775C207.08 46.2164 204.521 44.1826 201.542 44.1826Z" fill="white"/>
<path d="M67.805 9.93359C65.7863 9.93359 64.002 11.2076 63.9302 13.472H71.2754C71.4455 12.3341 70.7953 9.93737 67.8126 9.93359" fill="white"/>
<path d="M78.3331 0.357422H53.4244C52.5096 0.357422 51.6779 0.720335 51.0692 1.31007L41.3689 12.3336C37.4562 7.903 31.642 1.32897 31.5022 1.20422C30.9011 0.678751 30.1223 0.357422 29.2642 0.357422H4.34036C2.22715 0.357422 0.514648 2.0737 0.514648 4.18691V53.4713C0.514648 55.5807 2.22715 57.297 4.34036 57.297H21.8661C23.7146 57.297 25.2154 55.8151 25.2608 53.9741C25.2608 53.9439 25.2608 53.9174 25.2608 53.8909C25.2608 53.8645 25.2608 53.8342 25.2608 53.804V35.5789L39.0931 51.1464C39.4258 51.5244 39.8151 51.7928 40.2348 51.9667C40.5674 52.1217 40.9341 52.22 41.3273 52.22C41.7204 52.22 42.0644 52.1331 42.3933 51.9819C42.8243 51.808 43.2364 51.5396 43.5804 51.1464L57.4127 35.5789V53.7813C57.4127 53.8191 57.4051 53.8531 57.4051 53.8909C57.4051 53.9287 57.4089 53.9665 57.4127 54.0006C57.4694 55.8302 58.9664 57.297 60.8074 57.297H78.3331C80.4425 57.297 82.155 55.5807 82.155 53.4713V4.18691C82.155 2.0737 80.4425 0.357422 78.3331 0.357422ZM75.5659 16.56H63.9716C64.5159 18.9681 67.0525 19.9623 69.7631 19.9623H74.7342V22.7106C73.1918 23.3646 71.1731 23.7427 68.7008 23.7427H68.6932C63.4763 23.7427 59.1516 20.7524 59.1516 15.0138C59.1516 9.27526 63.3478 6.61768 66.9278 6.31903C67.166 6.29635 67.4003 6.28879 67.6347 6.28879C74.4583 6.28879 76.6584 11.6871 75.5583 16.56" fill="white"/>
</svg>